<?xml version="1.0" encoding="UTF-8" standalone="no"?>
<!-- Created with Inkscape (http://www.inkscape.org/) -->

<svg
   width="1024"
   height="500"
   viewBox="0 0 270.93332 132.29166"
   version="1.1"
   id="svg5"
   xml:space="preserve"
   inkscape:version="1.2.2 (b0a8486541, 2022-12-01)"
   sodipodi:docname="cover.svg"
   inkscape:export-filename="cover.png"
   inkscape:export-xdpi="96"
   inkscape:export-ydpi="96"
   xmlns:inkscape="http://www.inkscape.org/namespaces/inkscape"
   xmlns:sodipodi="http://sodipodi.sourceforge.net/DTD/sodipodi-0.dtd"
   xmlns:xlink="http://www.w3.org/1999/xlink"
   xmlns="http://www.w3.org/2000/svg"
   xmlns:svg="http://www.w3.org/2000/svg"><sodipodi:namedview
     id="namedview7"
     pagecolor="#ffffff"
     bordercolor="#666666"
     borderopacity="1.0"
     inkscape:showpageshadow="2"
     inkscape:pageopacity="0.0"
     inkscape:pagecheckerboard="0"
     inkscape:deskcolor="#d1d1d1"
     inkscape:document-units="mm"
     showgrid="false"
     inkscape:zoom="1.200407"
     inkscape:cx="459.84404"
     inkscape:cy="270.32498"
     inkscape:window-width="2560"
     inkscape:window-height="1520"
     inkscape:window-x="0"
     inkscape:window-y="1440"
     inkscape:window-maximized="1"
     inkscape:current-layer="layer1" /><defs
     id="defs2"><linearGradient
       inkscape:collect="always"
       id="linearGradient1142"><stop
         style="stop-color:#445500;stop-opacity:1;"
         offset="0"
         id="stop1138" /><stop
         style="stop-color:#445500;stop-opacity:0;"
         offset="1"
         id="stop1140" /></linearGradient><radialGradient
       inkscape:collect="always"
       xlink:href="#linearGradient1142"
       id="radialGradient1144"
       cx="512"
       cy="512"
       fx="512"
       fy="512"
       r="377.94791"
       gradientUnits="userSpaceOnUse"
       gradientTransform="matrix(1.3624818,0,0,1.3536712,-185.59067,-181.07966)"
       spreadMethod="pad" /><filter
       inkscape:collect="always"
       style="color-interpolation-filters:sRGB"
       id="filter1218"
       x="-0.0085771366"
       y="-0.0085771366"
       width="1.0171543"
       height="1.0171543"><feGaussianBlur
         inkscape:collect="always"
         stdDeviation="0.60085894"
         id="feGaussianBlur1220" /></filter><filter
       inkscape:collect="always"
       style="color-interpolation-filters:sRGB"
       id="filter1313"
       x="-0.14381405"
       y="-0.14381405"
       width="1.2876281"
       height="1.2876281"><feGaussianBlur
         inkscape:collect="always"
         stdDeviation="6.2372582"
         id="feGaussianBlur1315" /></filter><filter
       inkscape:collect="always"
       style="color-interpolation-filters:sRGB"
       id="filter1406"
       x="-0.11391132"
       y="-0.56417077"
       width="1.2278226"
       height="2.1283415"><feGaussianBlur
         inkscape:collect="always"
         stdDeviation="3.0651929"
         id="feGaussianBlur1408" /></filter></defs><g
     inkscape:label="Livello 1"
     inkscape:groupmode="layer"
     id="layer1"><rect
       style="fill:#70a500;stroke-width:2.64583;paint-order:markers stroke fill"
       id="rect703"
       width="282.63403"
       height="140.76494"
       x="-6.8261733"
       y="-3.6082673" /><image
       width="45.94556"
       height="73.512894"
       preserveAspectRatio="none"
       xlink:href="../../../Scrivania/Screenshot_1713253526.png"
       id="image294"
       x="5.1823692"
       y="14.677442" /><image
       width="64.304504"
       height="102.8872"
       preserveAspectRatio="none"
       xlink:href="../../../Scrivania/Screenshot_1713253673.png"
       id="image378"
       x="53.531548"
       y="-25.034714" /><image
       width="66.449577"
       height="106.31933"
       preserveAspectRatio="none"
       xlink:href="../../../Scrivania/Screenshot_1713253553.png"
       id="image318"
       x="12.250079"
       y="68.994629" /><image
       width="52.247486"
       height="83.595978"
       preserveAspectRatio="none"
       xlink:href="../../../Scrivania/Screenshot_1713253626.png"
       id="image342"
       x="153.01805"
       y="-14.243703" /><image
       width="62.072517"
       height="99.316025"
       preserveAspectRatio="none"
       xlink:href="../../../Scrivania/Screenshot_1713253667.png"
       id="image366"
       x="146.89882"
       y="86.870148" /><image
       width="56.04805"
       height="89.676872"
       preserveAspectRatio="none"
       xlink:href="../../../Scrivania/Screenshot_1713253700.png"
       id="image647"
       x="210.92294"
       y="10.245314" /><image
       width="47.263573"
       height="75.621719"
       preserveAspectRatio="none"
       xlink:href="../../../Scrivania/Screenshot_1713253544.png"
       id="image306"
       x="218.34088"
       y="80.553268" /><image
       width="40.245228"
       height="64.392357"
       preserveAspectRatio="none"
       xlink:href="../../../Scrivania/Screenshot_1713253563.png"
       id="image330"
       x="88.94677"
       y="103.86525" /><g
       id="g1344"
       transform="translate(0,-18.520839)"><circle
         style="fill:#70a500;stroke-width:2.64583;paint-order:markers stroke fill;filter:url(#filter1313)"
         id="path757"
         cx="135.46666"
         cy="66.145836"
         r="52.044361" /><g
         inkscape:label="Livello 1"
         id="layer1-5"
         transform="matrix(0.10748933,0,0,0.10748933,80.432127,11.111294)"><circle
           style="opacity:1;fill:url(#radialGradient1144);fill-opacity:1;stroke:#222b00;stroke-width:10;stroke-dasharray:none;filter:url(#filter1218)"
           id="path326"
           cx="512"
           cy="512"
           r="375.53683" /><path
           style="fill:#000000;stroke-width:1.47131"
           d="m 432.53094,879.43871 c -0.0326,-27.42753 -0.0331,-59.58415 -0.004,-96.90587 0.18576,-240.25597 0.31946,-235.73466 -6.97237,-235.73466 -1.63153,0 -53.21115,13.49206 -77.13487,20.17673 -4.29778,1.20086 -62.3101,-75.82691 -72.72578,-96.56407 -6.44422,-12.83015 -3.2522,-25.84131 8.19873,-33.41917 l 5.85618,-3.87543 0.0217,-70.79522 c 0.0231,-75.49012 0.21874,-77.64903 7.1252,-78.63783 9.18772,-1.31542 9.03369,-2.6073 9.07548,76.11876 l 0.038,71.49835 5.94311,2.74175 c 4.04997,1.86839 7.479,5.14909 10.76474,10.29917 2.6519,4.15658 8.40208,13.18045 12.77815,20.05304 6.33648,9.95137 21.69645,30.54421 27.75875,37.21564 1.2605,1.38715 74.46532,-14.02634 83.92514,-17.67069 24.65348,-9.49764 31.77578,-4.86136 50.22947,32.6971 7.95193,16.18441 14.44916,28.76412 14.43831,27.9549 -0.0181,-1.34994 -6.47723,-45.16075 -8.29712,-56.27762 l -0.7828,-4.78177 h 11.93145 c 8.57582,0 11.92538,0.51724 11.90984,1.83914 -0.0118,1.01153 -1.65098,15.04191 -3.64243,31.17859 -1.99143,16.1367 -3.47141,29.4689 -3.28882,29.62711 0.18259,0.15822 6.77257,-13.04454 14.64441,-29.33946 16.76862,-34.71147 15.80428,-33.79765 34.44033,-32.63611 17.80037,1.10946 18.06682,1.22138 57.16697,24.01185 l 33.85476,19.73307 7.75833,-4.1503 c 9.32323,-4.98743 31.38557,-21.36059 45.7933,-33.98463 18.29958,-16.03408 35.92334,-14.19219 46.84111,4.89543 11.37989,19.89559 -2.916,34.92292 -85.16996,89.52756 l -17.14607,11.38248 -31.40717,-20.43996 c -17.27392,-11.24199 -32.06923,-20.83727 -32.87845,-21.32287 -0.97753,-0.58659 -1.62491,74.98753 -1.92891,225.18739 -0.0806,39.81598 -0.16314,72.96478 -0.25944,100.54237 -19.16568,4.0041 -40.16084,6.5685 -67.47001,7.76374 -0.0225,-82.71045 -0.72085,-114.93934 -1.85496,-118.19267 -3.01133,-8.63829 -12.13974,-10.19002 -19.08546,-3.24428 l -4.30075,4.30075 0.16627,118.32473 c -27.50935,-3.6403 -41.04738,-4.29209 -66.31036,-9.09704 z M 551.86184,672.43738 C 532.1449,628.5917 519.29935,582.68479 519.2789,555.99387 c -0.005,-6.74154 -0.38034,-7.72439 -2.94854,-7.72439 -2.22781,0 -2.94408,0.98288 -2.94861,4.04611 -0.0773,52.27569 -12.4679,102.43485 -30.89336,125.06139 -4.11858,5.05764 -6.9258,9.1957 -6.23827,9.1957 1.94313,0 12.94096,-7.41423 28.99831,-19.54936 l 14.66601,-11.08363 8.58355,7.59212 c 33.69597,29.80386 32.56832,29.37403 23.36385,8.90557 z m -58.3368,-205.14534 c -23.41971,-7.51495 -39.22203,-29.42559 -39.22203,-54.38311 0,-52.10215 63.3177,-76.90072 98.92886,-38.74579 40.04701,42.90767 -3.67744,111.10773 -59.70683,93.1289 z"
           id="path225"
           sodipodi:nodetypes="cssssscssscsssssssscssssssscsssscsssccsscccscssssscssssss" /></g></g><text
       xml:space="preserve"
       style="font-size:25.4px;line-height:1.25;font-family:FreeSerif;-inkscape-font-specification:FreeSerif;stroke-width:5.29166667;fill:#70a500;fill-opacity:1;filter:url(#filter1406);stroke:#70a500;stroke-opacity:1;stroke-dasharray:none"
       x="93.679466"
       y="110.67921"
       id="text1404"><tspan
         sodipodi:role="line"
         id="tspan1402"
         style="font-style:italic;font-variant:normal;font-weight:bold;font-stretch:normal;font-size:25.4px;font-family:FreeSerif;-inkscape-font-specification:'FreeSerif Bold Italic';stroke-width:5.29166667;fill:#70a500;fill-opacity:1;stroke:#70a500;stroke-opacity:1;stroke-dasharray:none"
         x="93.679466"
         y="110.67921">Meistru!</tspan></text><text
       xml:space="preserve"
       style="font-size:25.4px;line-height:1.25;font-family:FreeSerif;-inkscape-font-specification:FreeSerif;stroke-width:0.264583"
       x="93.679466"
       y="110.67921"
       id="text1400"><tspan
         sodipodi:role="line"
         id="tspan1398"
         style="font-style:italic;font-variant:normal;font-weight:bold;font-stretch:normal;font-size:25.4px;font-family:FreeSerif;-inkscape-font-specification:'FreeSerif Bold Italic';stroke-width:0.264583"
         x="93.679466"
         y="110.67921">Meistru!</tspan></text></g></svg>
