<?xml version="1.0" encoding="UTF-8" standalone="no"?>
<!-- Created with Inkscape (http://www.inkscape.org/) -->

<svg
   width="1024"
   height="1024"
   viewBox="0 0 1024 1024"
   version="1.1"
   id="svg5"
   xml:space="preserve"
   inkscape:version="1.2.2 (b0a8486541, 2022-12-01)"
   sodipodi:docname="source_icon.svg"
   xmlns:inkscape="http://www.inkscape.org/namespaces/inkscape"
   xmlns:sodipodi="http://sodipodi.sourceforge.net/DTD/sodipodi-0.dtd"
   xmlns="http://www.w3.org/2000/svg"
   xmlns:svg="http://www.w3.org/2000/svg"><sodipodi:namedview
     id="namedview7"
     pagecolor="#ffffff"
     bordercolor="#666666"
     borderopacity="1.0"
     inkscape:showpageshadow="false"
     inkscape:pageopacity="0.0"
     inkscape:pagecheckerboard="0"
     inkscape:deskcolor="#d1d1d1"
     inkscape:document-units="px"
     showgrid="false"
     inkscape:zoom="0.86142787"
     inkscape:cx="636.15309"
     inkscape:cy="522.38849"
     inkscape:window-width="2560"
     inkscape:window-height="1520"
     inkscape:window-x="0"
     inkscape:window-y="1440"
     inkscape:window-maximized="1"
     inkscape:current-layer="layer1" /><defs
     id="defs2" /><g
     inkscape:label="Livello 1"
     inkscape:groupmode="layer"
     id="layer1"><path
       style="fill:#000000;stroke-width:1.47131"
       d="m 444.57661,1003.0176 c -8.39388,-4.1829 -14.0693,-11.341 -16.58213,-20.9142 -1.17554,-4.4784 -1.59156,-69.54553 -1.46783,-229.57056 0.18573,-240.25597 0.31946,-235.73466 -6.97237,-235.73466 -1.63153,0 -53.21115,13.49206 -77.13487,20.17673 -4.29778,1.20086 -62.3101,-75.82691 -72.72578,-96.56407 -6.44422,-12.83015 -3.2522,-25.84131 8.19873,-33.41917 l 5.85618,-3.87543 0.0217,-70.79522 c 0.0231,-75.49012 0.21874,-77.64903 7.1252,-78.63783 9.18772,-1.31542 9.03369,-2.6073 9.07548,76.11876 l 0.038,71.49835 5.94311,2.74175 c 4.04997,1.86839 7.479,5.14909 10.76474,10.29917 2.6519,4.15658 8.40208,13.18045 12.77815,20.05304 6.33648,9.95137 21.69645,30.54421 27.75875,37.21564 1.2605,1.38715 74.46532,-14.02634 83.92514,-17.67069 24.65348,-9.49764 31.77578,-4.86136 50.22947,32.6971 7.95193,16.18441 14.44916,28.76412 14.43831,27.9549 -0.0181,-1.34994 -6.47723,-45.16075 -8.29712,-56.27762 l -0.7828,-4.78177 h 11.93145 c 8.57582,0 11.92538,0.51724 11.90984,1.83914 -0.0118,1.01153 -1.65098,15.04191 -3.64243,31.17859 -1.99143,16.1367 -3.47141,29.4689 -3.28882,29.62711 0.18259,0.15822 6.77257,-13.04454 14.64441,-29.33946 16.76862,-34.71147 15.80428,-33.79765 34.44033,-32.63611 17.80037,1.10946 18.06682,1.22138 57.16697,24.01185 l 33.85476,19.73307 7.75833,-4.1503 c 9.32323,-4.98743 31.38557,-21.36059 45.7933,-33.98463 18.29958,-16.03408 35.92334,-14.19219 46.84111,4.89543 11.37989,19.89559 -2.916,34.92292 -85.16996,89.52756 l -17.14607,11.38248 -31.40717,-20.43996 c -17.27392,-11.24199 -32.06923,-20.83727 -32.87845,-21.32287 -0.97753,-0.58659 -1.62489,74.98753 -1.92891,225.18739 -0.3803,187.89554 -0.80432,227.31369 -2.51097,233.43379 -7.91861,28.3962 -50.1753,31.3683 -62.65797,4.407 -2.58007,-5.5727 -2.72649,-12.18367 -2.75709,-124.47403 -0.0225,-82.71045 -0.52427,-119.99999 -1.65838,-123.25332 -3.01133,-8.63829 -12.13974,-10.19002 -19.08546,-3.24428 l -4.30075,4.30075 -0.0324,120.39282 c -0.0365,135.77546 0.69355,127.06606 -11.52717,137.52656 -10.87234,9.3063 -24.11579,11.0777 -36.53854,4.8872 z M 545.86184,642.43738 C 526.1449,598.5917 513.29935,552.68479 513.2789,525.99387 c -0.005,-6.74154 -0.38034,-7.72439 -2.94854,-7.72439 -2.22781,0 -2.94408,0.98288 -2.94861,4.04611 -0.0773,52.27569 -12.4679,102.43485 -30.89336,125.06139 -4.11858,5.05764 -6.9258,9.1957 -6.23827,9.1957 1.94313,0 12.94096,-7.41423 28.99831,-19.54936 l 14.66601,-11.08363 8.58355,7.59212 c 33.69597,29.80386 32.56832,29.37403 23.36385,8.90557 z m -58.3368,-205.14534 c -23.41971,-7.51495 -39.22203,-29.42559 -39.22203,-54.38311 0,-52.10215 63.3177,-76.90072 98.92886,-38.74579 40.04701,42.90767 -3.67744,111.10773 -59.70683,93.1289 z"
       id="path225" /><circle
       style="opacity:0.704676;fill:#000000;fill-opacity:0.759376;stroke:#000000;stroke-width:4.82214"
       id="path326"
       cx="512"
       cy="512"
       r="375.53683" /></g></svg>
